# AST/ASF file generated using VICON BodyLanguage
# -----------------------------------------------
:version 1.10
:name VICON
:units
  mass 1.0
  length 0.45
  angle deg
:documentation
   .ast/.asf automatically generated from VICON data using
   VICON BodyBuilder and BodyLanguage model FoxedUp or BRILLIANT.MOD
:root
   order TX TY TZ RX RY RZ
   axis XYZ
   position 0 0 0  
   orientation 0 0 0 
:bonedata
  begin
     id 1 
     name lhipjoint
     direction 0.624716 -0.669793 0.401383 
     length 2.38238 
     axis 0 0 0  XYZ
  end
  begin
     id 2 
     name lfemur
     direction 0.34202 -0.939693 0  
     length 6.4574  
     axis 0 0 20  XYZ
    dof rx ry rz
    limits (-160.0 20.0)
           (-70.0 70.0)
           (-60.0 70.0)
  end
  begin
     id 3 
     name ltibia
     direction 0.34202 -0.939693 0   
     length 7.68739   
     axis 0 0 20   XYZ
    dof rx
    limits (-10.0 170.0)
  end
  begin
     id 4 
     name lfoot
     direction 0.0681309 -0.187188 0.979959   
     length 2.46615   
     axis -90 7.62852e-016 20   XYZ
    dof rx rz
    limits (-45.0 90.0)
           (-70.0 20.0)
  end
  begin
     id 5 
     name ltoes
     direction 1.53566e-011 -4.21819e-011 1   
     length 1.2376   
     axis -90 7.62852e-016 20   XYZ
    dof rx
    limits (-90.0 20.0)
  end
  begin
     id 6 
     name rhipjoint
     direction -0.644473 -0.655875 0.393043   
     length 2.43293  
     axis 0 0 0  XYZ 
  end
  begin
     id 7 
     name rfemur
     direction -0.34202 -0.939693 0   
     length 6.7025   
     axis 0 0 -20   XYZ
    dof rx ry rz
    limits (-160.0 20.0)
           (-70.0 70.0)
           (-70.0 60.0)
  end
  begin
     id 8 
     name rtibia
     direction -0.34202 -0.939693 0   
     length 7.80547   
     axis 0 0 -20   XYZ
    dof rx
    limits (-10.0 170.0)
 end
 begin
     id 9 
     name rfoot
     direction -0.0756734 -0.207911 0.975216   
     length 2.40315  
     axis -90 -7.62852e-016 -20   XYZ
    dof rx rz
    limits (-45.0 90.0)
           (-20.0 70.0)
  end
  begin
     id 10 
     name rtoes
     direction -1.5353e-011 -4.21879e-011 1   
     length 1.20477   
     axis -90 -7.62852e-016 -20   XYZ
    dof rx
    limits (-90.0 20.0)
  end
  begin
     id 11 
     name lowerback
     direction 0.0160353 0.987463 -0.157037   
     length 2.18572   
     axis 0 0 0   XYZ
    dof rx ry rz
    limits (-20.0 45.0)
           (-30.0 30.0)
           (-30.0 30.0)
  end
  begin
     id 12 
     name upperback
     direction -0.00499661 0.999756 0.0215076   
     length 2.18016   
     axis 0 0 0   XYZ
    dof rx ry rz
    limits (-20.0 45.0)
           (-30.0 30.0)
           (-30.0 30.0)
  end
  begin
     id 13 
     name thorax
     direction -0.00921346 0.995333 0.0960619   
     length 2.24923   
     axis 0 0 0   XYZ
    dof rx ry rz
    limits (-20.0 45.0)
           (-30.0 30.0)
           (-30.0 30.0)
  end
  begin
     id 14 
     name lowerneck
     direction 0.0274184 0.991181 0.12965   
     length 1.70911   
     axis 0 0 0   XYZ
    dof rx ry rz
    limits (-20.0 45.0)
           (-30.0 30.0)
           (-30.0 30.0)
  end
  begin
     id 15 
     name upperneck
     direction 0.0015627 0.999959 -0.00893559   
     length 1.69312   
     axis 0 0 0   XYZ
    dof rx ry rz
    limits (-20.0 45.0)
           (-30.0 30.0)
           (-30.0 30.0)
  end
  begin
     id 16
     name head
     direction -0.00230242 0.999856 -0.0168327  
     length 1.80241  
     axis 0 0 0   XYZ
    dof rx ry rz
    limits (-20.0 45.0)
           (-30.0 30.0)
           (-30.0 30.0)
  end
  begin
     id 17 
     name lclavicle
     direction 0.955523 0.290741 -0.0494489  
     length 3.84275  
     axis 0 0 0   XYZ
    dof ry rz
    limits (-20.0 10.0)
           (0.0 20.0)
  end
  begin
     id 18 
     name lhumerus
     direction 1 -4.48967e-011 -3.18382e-028   
     length 5.17714   
     axis 180 -30 -90   XYZ
    dof rx ry rz
    limits (-60.0 90.0)
           (-90.0 90.0)
           (-90.0 90.0)
  end
  begin
     id 19
     name lradius
     direction 1 -4.48968e-011 -2.22911e-027   
     length 3.43679   
     axis 180 -30 -90   XYZ
    dof rx
    limits (-10.0 170.0)
  end
  begin
     id 20
     name lwrist
     direction 1 -4.48951e-011 -6.32245e-027   
     length 1.7184   
     axis 3.57107e-015 90 90   XYZ
    dof ry
    limits (-180.0 0.0)
 end
  begin
     id 21 
     name lhand
     direction 1 -4.48924e-011 -1.26431e-026   
     length 0.573117   
     axis 8.06912e-015 90 90   XYZ
    dof rx rz
    limits (-90.0 90.0)
           (-45.0 45.0)
  end
  begin
     id 22 
     name lfingers
     direction 1 -4.49001e-011 -2.52965e-026   
     length 0.462062   
     axis 1.61381e-014 90 90   XYZ
    dof rx
    limits (0.0 90.0)
  end
  begin
     id 23
     name lthumb
     direction 0.707107 -6.35008e-011 0.707107   
     length 0.663431   
     axis -90 45 -1.62303e-014   XYZ
    dof rx rz
    limits (-45.0 45.0)
           (-45.0 45.0)
  end
  begin
     id 24 
     name rclavicle
     direction -0.963917 0.256881 -0.0698287   
     length 3.73057  
     axis 0 0 0   XYZ 
    dof ry rz
    limits (-10.0 20.0)
           (-20.0 0.0)
  end
  begin
     id 25 
     name rhumerus
     direction -1 -4.48962e-011 -2.73982e-027  
     length 5.23908   
     axis 180 30 90   XYZ
    dof rx ry rz
    limits (-90.0 60.0)
           (-90.0 90.0)
           (-90.0 90.0)
  end
  begin
     id 26 
     name rradius
     direction -1 -4.48968e-011 -4.33218e-027   
     length 3.46485   
     axis 180 30 90   XYZ
    dof rx
    limits (-10.0 170.0)
  end
  begin
     id 27 
     name rwrist
     direction -1 -4.48989e-011 -6.32372e-027   
     length 1.73243   
     axis 3.57107e-015 -90 -90   XYZ
    dof ry
    limits (-180.0 0.0)
  end
  begin
     id 28
     name rhand
     direction -1 -4.48948e-011 -1.26448e-026   
     length 0.608752   
     axis 8.06912e-015 -90 -90   XYZ
    dof rx rz
    limits (-90.0 90.0)
           (-45.0 45.0)
  end
  begin
     id 29
     name rfingers
     direction -1 -4.48962e-011 -2.52913e-026   
     length 0.490792   
     axis 1.61381e-014 -90 -90   XYZ
    dof rx
    limits (0.0 90.0)
  end
  begin
     id 30
     name rthumb
     direction -0.707107 -6.34878e-011 0.707107   
     length 0.704682   
     axis -90 -45 1.62303e-014   XYZ
    dof rx rz
    limits (-45.0 45.0)
           (-45.0 45.0)
  end
:hierarchy
  begin
    root lhipjoint rhipjoint lowerback
    lhipjoint lfemur
    lfemur ltibia
    ltibia lfoot
    lfoot ltoes
    rhipjoint rfemur
    rfemur rtibia
    rtibia rfoot
    rfoot rtoes
    lowerback upperback
    upperback thorax
    thorax lowerneck lclavicle rclavicle
    lowerneck upperneck
    upperneck head
    lclavicle lhumerus
    lhumerus lradius
    lradius lwrist
    lwrist lhand lthumb
    lhand lfingers
    rclavicle rhumerus
    rhumerus rradius
    rradius rwrist
    rwrist rhand rthumb
    rhand rfingers
  end

#!OML:ASF G:\JayActor3\Patient Classification 1\Patient 1\Session 6\male.ASF
:FULLY-SPECIFIED
:DEGREES
201
root 46.5309 15.8902 14.4313 178.529 -34.0868 -179.935
lowerback 4.0744 3.04244 1.45696
upperback 10.5914 3.33993 -3.81215
thorax 9.26761 1.56557 -4.80957
lowerneck 13.0345 13.9084 11.3627
upperneck -14.1851 19.2574 -12.6955
head -3.95424 9.8608 -6.68658
rclavicle -2.54444e-014 2.8625e-014
rhumerus -40.3381 -13.8871 -88.2427
rradius 30.9812
rwrist -0.0621215
rhand -12.99 -8.63645
rfingers 7.12502
rthumb 13.1029 -38.2048
lclavicle -2.54444e-014 2.8625e-014
lhumerus -4.62386 -29.863 87.0899
lradius 46.5365
lwrist 37.3728
lhand -9.02246 11.6882
lfingers 7.12502
lthumb 16.9248 40.9708
rfemur -35.3299 -10.6483 23.6384
rtibia 42.2079
rfoot -18.4561 -12.2959
rtoes -10.5716
lfemur 21.0169 6.64536 -18.531
ltibia 7.16519
lfoot -8.53966 -8.90098
ltoes 4.00133
202
root 46.4882 15.886 14.3648 178.691 -35.08 -180.255
lowerback 4.36821 2.94037 1.68521
upperback 10.9336 3.15151 -3.59835
thorax 9.46503 1.47351 -4.72987
lowerneck 13.3138 13.6707 11.3201
upperneck -14.1038 18.9503 -12.7732
head -4.00759 9.72614 -6.72787
rclavicle 1.76123e-013 -9.85972e-014
rhumerus -40.165 -13.3 -88.3166
rradius 31.7707
rwrist -0.569862
rhand -13.7225 -8.61546
rfingers 7.12502
rthumb 12.3967 -38.2279
lclavicle 1.76123e-013 -9.85972e-014
lhumerus -4.41509 -30.0428 87.2124
lradius 47.4167
lwrist 37.8093
lhand -8.97219 11.5591
lfingers 7.12502
lthumb 16.9732 40.8375
rfemur -34.9008 -10.2561 22.9297
rtibia 41.7678
rfoot -18.2795 -12.9078
rtoes -9.3136
lfemur 21.0324 6.47249 -18.4933
ltibia 7.43685
lfoot -7.86753 -9.69057
ltoes 4.44321
203
root 46.4444 15.8773 14.2985 178.887 -36.03 -180.623
lowerback 4.654 2.85306 1.8998
upperback 11.2813 2.97953 -3.37103
thorax 9.67506 1.38717 -4.62626
lowerneck 13.5668 13.45 11.2219
upperneck -14.0325 18.6498 -12.8662
head -4.06284 9.59809 -6.76403
rclavicle 1.51076e-014 3.89618e-014
rhumerus -39.9666 -12.6825 -88.3552
rradius 32.5269
rwrist -0.986762
rhand -14.529 -8.63356
rfingers 7.12502
rthumb 11.619 -38.2914
lclavicle 1.51076e-014 3.89618e-014
lhumerus -4.26618 -30.082 87.3715
lradius 48.3129
lwrist 38.2449
lhand -8.94934 11.3944
lfingers 7.12502
lthumb 16.9952 40.6709
rfemur -34.5145 -9.93568 22.243
rtibia 41.5521
rfoot -18.0354 -13.5284
rtoes -8.04025
lfemur 20.9127 6.34076 -18.4806
ltibia 7.97569
lfoot -7.26685 -10.5518
ltoes 5.0627
204
root 46.3998 15.8641 14.2321 179.112 -36.9288 -181.032
lowerback 4.93578 2.78188 2.11064
upperback 11.6323 2.82567 -3.13731
thorax 9.89504 1.30842 -4.51215
lowerneck 13.802 13.2314 11.0661
upperneck -13.9907 18.336 -12.9629
head -4.13105 9.4656 -6.79367
rclavicle 4.77083e-014 -1.35174e-014
rhumerus -39.7369 -12.0816 -88.345
rradius 33.2347
rwrist -1.32654
rhand -15.3192 -8.70127
rfingers 7.12502
rthumb 10.8568 -38.4006
lclavicle 4.77083e-014 -1.35174e-014
lhumerus -4.17681 -30.0013 87.5412
lradius 49.2197
lwrist 38.6598
lhand -8.93813 11.2198
lfingers 7.12502
lthumb 17.006 40.4954
rfemur -34.1523 -9.68062 21.5878
rtibia 41.5161
rfoot -17.7506 -14.0799
rtoes -6.64212
lfemur 20.6655 6.25625 -18.4814
ltibia 8.77311
lfoot -6.71767 -11.4808
ltoes 5.85727
205
root 46.3553 15.847 14.1654 179.363 -37.7756 -181.469
lowerback 5.22637 2.72614 2.32582
upperback 11.9792 2.68983 -2.90161
thorax 10.1096 1.23814 -4.39711
lowerneck 14.026 13.0003 10.8755
upperneck -13.9904 17.9925 -13.0709
head -4.21586 9.31998 -6.82308
rclavicle -7.55382e-015 4.77083e-014
rhumerus -39.4768 -11.5227 -88.2842
rradius 33.8892
rwrist -1.6078
rhand -16.0139 -8.7908
rfingers 7.12502
rthumb 10.1867 -38.5242
lclavicle -7.55382e-015 4.77083e-014
lhumerus -4.15342 -29.8162 87.7036
lradius 50.1295
lwrist 39.041
lhand -8.95249 11.0422
lfingers 7.12502
lthumb 16.9922 40.3189
rfemur -33.8 -9.47168 20.9731
rtibia 41.6058
rfoot -17.4839 -14.5135
rtoes -5.168
lfemur 20.2837 6.21769 -18.4797
ltibia 9.82924
lfoot -6.2147 -12.4667
ltoes 6.71088
206
root 46.3117 15.8265 14.0982 179.632 -38.5727 -181.926
lowerback 5.53998 2.68182 2.54477
upperback 12.3185 2.56701 -2.66542
thorax 10.3063 1.17363 -4.28293
lowerneck 14.2386 12.7513 10.6599
upperneck -14.0314 17.6122 -13.1965
head -4.31658 9.15797 -6.85496
rclavicle 6.50026e-014 1.66979e-014
rhumerus -39.181 -11.0226 -88.1674
rradius 34.4743
rwrist -1.83864
rhand -16.5768 -8.87256
rfingers 7.12502
rthumb 9.64365 -38.6318
lclavicle 6.50026e-014 1.66979e-014
lhumerus -4.19676 -29.5252 87.8508
lradius 51.0266
lwrist 39.3784
lhand -8.9969 10.8794
lfingers 7.12502
lthumb 16.9494 40.1599
rfemur -33.4379 -9.26836 20.3919
rtibia 41.7716
rfoot -17.3564 -14.8156
rtoes -3.50131
lfemur 19.7773 6.22699 -18.4636
ltibia 11.1232
lfoot -5.73484 -13.4945
ltoes 7.55732
207
root 46.2697 15.8034 14.0304 179.912 -39.3346 -182.388
lowerback 5.88734 2.64244 2.77784
upperback 12.6488 2.44911 -2.43121
thorax 10.4767 1.11191 -4.17852
lowerneck 14.4407 12.4854 10.4563
upperneck -14.1183 17.2005 -13.3635
head -4.4284 8.98266 -6.90118
rclavicle -5.13858e-014 2.62396e-014
rhumerus -38.8421 -10.5807 -88.0079
rradius 34.9871
rwrist -2.04782
rhand -16.9763 -8.89969
rfingers 7.12502
rthumb 9.2582 -38.6764
lclavicle -5.13858e-014 2.62396e-014
lhumerus -4.29721 -29.1554 87.9623
lradius 51.8971
lwrist 39.6893
lhand -9.09217 10.7099
lfingers 7.12502
lthumb 16.8577 39.9982
rfemur -33.061 -9.02869 19.8393
rtibia 41.979
rfoot -17.4583 -15.0552
rtoes -1.63208
lfemur 19.1655 6.336 -18.3947
ltibia 12.613
lfoot -5.23454 -14.6036
ltoes 8.22034
208
root 46.2295 15.7791 13.9619 180.213 -40.0583 -182.862
lowerback 6.27184 2.6059 3.01508
upperback 12.9643 2.33505 -2.20223
thorax 10.6115 1.05174 -4.08174
lowerneck 14.6246 12.2186 10.2807
upperneck -14.2505 16.7791 -13.5913
head -4.54425 8.80567 -6.96908
rclavicle 8.1452e-014 -3.23025e-014
rhumerus -38.4553 -10.1873 -87.8114
rradius 35.4197
rwrist -2.25402
rhand -17.2132 -8.87717
rfingers 7.12502
rthumb 9.02961 -38.6639
lclavicle 8.1452e-014 -3.23025e-014
lhumerus -4.4576 -28.6972 88.0454
lradius 52.7228
lwrist 39.9665
lhand -9.26795 10.5245
lfingers 7.12502
lthumb 16.6885 39.8271
rfemur -32.6984 -8.7328 19.304
rtibia 42.2197
rfoot -17.7983 -15.3325
rtoes 0.410162
lfemur 18.4556 6.51621 -18.2886
ltibia 14.2542
lfoot -4.6557 -15.7531
ltoes 8.86385
209
root 46.191 15.7551 13.8928 180.546 -40.7519 -183.353
lowerback 6.69317 2.56563 3.26066
upperback 13.261 2.21792 -1.98408
thorax 10.706 0.990658 -4.00102
lowerneck 14.7877 11.9642 10.1316
upperneck -14.4183 16.367 -13.8713
head -4.65991 8.636 -7.05564
rclavicle 1.43125e-014 1.78906e-015
rhumerus -38.0295 -9.81365 -87.5993
rradius 35.7849
rwrist -2.44738
rhand -17.371 -8.86803
rfingers 7.12502
rthumb 8.87737 -38.6613
lclavicle 1.43125e-014 1.78906e-015
lhumerus -4.67193 -28.1553 88.0999
lradius 53.4813
lwrist 40.2042
lhand -9.50727 10.3072
lfingers 7.12502
lthumb 16.4581 39.6291
rfemur -32.396 -8.40776 18.7795
rtibia 42.5234
rfoot -18.3205 -15.729
rtoes 2.44067
lfemur 17.6667 6.74876 -18.1584
ltibia 15.9938
lfoot -3.95515 -16.9138
ltoes 9.43566
210
root 46.1536 15.7332 13.8232 180.924 -41.4179 -183.889
lowerback 7.15522 2.52271 3.49731
upperback 13.5396 2.10014 -1.77935
thorax 10.7573 0.928164 -3.92941
lowerneck 14.9399 11.7276 10.0106
upperneck -14.6287 15.972 -14.2028
head -4.77849 8.47754 -7.16291
rclavicle 2.39536e-014 0
rhumerus -37.5645 -9.46044 -87.3659
rradius 36.0884
rwrist -2.6662
rhand -17.4528 -8.86129
rfingers 7.12502
rthumb 8.79841 -38.6579
lclavicle 2.39536e-014 0
lhumerus -4.93664 -27.5277 88.1407
lradius 54.1561
lwrist 40.3946
lhand -9.80913 10.0685
lfingers 7.12502
lthumb 16.1674 39.4143
rfemur -32.1958 -8.10524 18.2452
rtibia 42.9349
rfoot -18.9089 -16.2645
rtoes 4.19596
lfemur 16.7965 6.97308 -18.0423
ltibia 17.8153
lfoot -3.04083 -18.0436
ltoes 10.2368
211
root 46.1165 15.7119 13.7536 181.364 -42.0414 -184.512
lowerback 7.66122 2.48615 3.70055
upperback 13.8072 1.99335 -1.59569
thorax 10.7722 0.867577 -3.86134
lowerneck 15.0783 11.5083 9.91315
upperneck -14.8722 15.5954 -14.5666
head -4.89896 8.32954 -7.28421
rclavicle 2.40529e-014 4.37326e-015
rhumerus -37.0652 -9.13266 -87.1079
rradius 36.3441
rwrist -2.91705
rhand -17.4831 -8.88065
rfingers 7.12502
rthumb 8.76921 -38.6785
lclavicle 2.40529e-014 4.37326e-015
lhumerus -5.23899 -26.8354 88.1773
lradius 54.7257
lwrist 40.5416
lhand -10.1743 9.80462
lfingers 7.12502
lthumb 15.8158 39.1786
rfemur -32.1325 -7.8937 17.6668
rtibia 43.5142
rfoot -19.4521 -16.8807
rtoes 5.48354
lfemur 15.8705 7.20059 -17.9874
ltibia 19.7126
lfoot -1.94527 -19.1164
ltoes 10.9545
